<svg width="19" height="17" viewBox="0 0 19 17" fill="none" xmlns="http://www.w3.org/2000/svg">
<path d="M1.2657 16.0964C0.495365 16.0964 0.0143065 15.2621 0.400271 14.5954L8.4002 0.777329C8.78536 0.112044 9.74589 0.112044 10.1311 0.777329L18.131 14.5954C18.5169 15.2621 18.0359 16.0964 17.2656 16.0964H1.2657ZM9.26562 13.4416C9.51636 13.4416 9.72653 13.3568 9.89615 13.1872C10.0658 13.0176 10.1506 12.8074 10.1506 12.5567C10.1506 12.3059 10.0658 12.0957 9.89615 11.9261C9.72653 11.7565 9.51636 11.6717 9.26562 11.6717C9.01489 11.6717 8.80472 11.7565 8.6351 11.9261C8.46549 12.0957 8.38068 12.3059 8.38068 12.5567C8.38068 12.8074 8.46549 13.0176 8.6351 13.1872C8.80472 13.3568 9.01489 13.4416 9.26562 13.4416ZM8.38068 9.90182C8.38068 10.3906 8.77688 10.7868 9.26562 10.7868C9.75436 10.7868 10.1506 10.3906 10.1506 9.90182V7.24699C10.1506 6.75825 9.75436 6.36205 9.26562 6.36205C8.77688 6.36205 8.38068 6.75825 8.38068 7.24699V9.90182Z" fill="#B1B1B1"/>
</svg>
