<svg width="20" height="20" viewBox="0 0 20 20" fill="none" xmlns="http://www.w3.org/2000/svg">
<g clip-path="url(#clip0_18_40)">
<path d="M15.9501 10.4339C15.9834 10.1964 16.0001 9.951 16.0001 9.68975C16.0001 9.43642 15.9834 9.18309 15.9418 8.94559L17.6334 7.69475C17.7834 7.58392 17.8251 7.37017 17.7334 7.21184L16.1334 4.5835C16.0334 4.40934 15.8251 4.35392 15.6418 4.40934L13.6501 5.16934C13.2334 4.8685 12.7918 4.61517 12.3001 4.42517L12.0001 2.41434C11.9668 2.22434 11.8001 2.08975 11.6001 2.08975H8.4001C8.2001 2.08975 8.04176 2.22434 8.00843 2.41434L7.70843 4.42517C7.21676 4.61517 6.76676 4.87642 6.35843 5.16934L4.36676 4.40934C4.18343 4.346 3.9751 4.40934 3.8751 4.5835L2.28343 7.21184C2.18343 7.37809 2.21676 7.58392 2.38343 7.69475L4.0751 8.94559C4.03343 9.18309 4.0001 9.44434 4.0001 9.68975C4.0001 9.93517 4.01676 10.1964 4.05843 10.4339L2.36676 11.6848C2.21676 11.7956 2.1751 12.0093 2.26676 12.1677L3.86676 14.796C3.96676 14.9702 4.1751 15.0256 4.35843 14.9702L6.3501 14.2102C6.76676 14.511 7.20843 14.7643 7.7001 14.9543L8.0001 16.9652C8.04176 17.1552 8.2001 17.2898 8.4001 17.2898H11.6001C11.8001 17.2898 11.9668 17.1552 11.9918 16.9652L12.2918 14.9543C12.7834 14.7643 13.2334 14.511 13.6418 14.2102L15.6334 14.9702C15.8168 15.0335 16.0251 14.9702 16.1251 14.796L17.7251 12.1677C17.8251 11.9935 17.7834 11.7956 17.6251 11.6848L15.9501 10.4339ZM10.0001 12.5398C8.3501 12.5398 7.0001 11.2573 7.0001 9.68975C7.0001 8.12225 8.3501 6.83975 10.0001 6.83975C11.6501 6.83975 13.0001 8.12225 13.0001 9.68975C13.0001 11.2573 11.6501 12.5398 10.0001 12.5398Z" fill="#B1B1B1"/>
</g>
<defs>
<clipPath id="clip0_18_40">
<rect width="20" height="19" fill="white" transform="translate(0 0.189453)"/>
</clipPath>
</defs>
</svg>
