<svg width="21" height="21" viewBox="0 0 21 21" fill="none" xmlns="http://www.w3.org/2000/svg">
<path d="M10.4125 19.0228L14.3938 9.02278H16.2312L20.2125 19.0228H18.375L17.4344 16.4811H13.1906L12.25 19.0228H10.4125ZM3.5 16.5228L2.275 15.3561L6.69375 11.1478C6.18333 10.6617 5.72031 10.1061 5.30469 9.48111C4.88906 8.85611 4.50625 8.14778 4.15625 7.35611H5.99375C6.28542 7.89778 6.57708 8.37 6.86875 8.77278C7.16042 9.17555 7.51042 9.57833 7.91875 9.98111C8.4 9.52278 8.89948 8.88042 9.41719 8.05403C9.9349 7.22764 10.325 6.43944 10.5875 5.68944H0.875V4.02278H7V2.35611H8.75V4.02278H14.875V5.68944H12.3375C12.0312 6.68944 11.5719 7.71722 10.9594 8.77278C10.3469 9.82833 9.74167 10.6339 9.14375 11.1894L11.2437 13.2311L10.5875 14.9394L7.91875 12.3353L3.5 16.5228ZM13.7375 15.0228H16.8875L15.3125 10.7728L13.7375 15.0228Z" fill="#B1B1B1"/>
</svg>
